<?xml version="1.0" encoding="UTF-8" standalone="no"?>
<!DOCTYPE svg PUBLIC "-//W3C//DTD SVG 1.1//EN" "http://www.w3.org/Graphics/SVG/1.1/DTD/svg11.dtd">
<svg width="100%" height="100%" viewBox="0 0 320 320" version="1.1" xmlns="http://www.w3.org/2000/svg" xmlns:xlink="http://www.w3.org/1999/xlink" xml:space="preserve" xmlns:serif="http://www.serif.com/" style="fill-rule:evenodd;clip-rule:evenodd;">
    <g transform="matrix(1,0,0,1,-411.5625,-20)">
        <g transform="matrix(1.40625,0,0,1.40625,400,-2.8125)">
            <path d="M228,35.378L228,228.622C228,234.902 222.902,240 216.622,240L55.378,240C49.098,240 44,234.902 44,228.622L44,35.378C44,29.098 49.098,24 55.378,24L216.622,24C222.902,24 228,29.098 228,35.378Z" style="fill:rgb(203,213,225);"/>
        </g>
        <g transform="matrix(1.40625,0,0,1.40625,400,-2.8125)">
            <path d="M224,31.378L224,224.622C224,230.902 218.902,236 212.622,236L51.378,236C45.098,236 40,230.902 40,224.622L40,31.378C40,25.098 45.098,20 51.378,20L212.622,20C218.902,20 224,25.098 224,31.378Z" style="stroke:rgb(226,232,240);stroke-width:2px;"/>
        </g>
        <g transform="matrix(1.40625,0,0,1.40625,400,-2.8125)">
            <circle cx="56" cy="36" r="4" style="fill:rgb(252,165,165);"/>
        </g>
        <g transform="matrix(1.40625,0,0,1.40625,400,-2.8125)">
            <circle cx="68" cy="36" r="4" style="fill:rgb(253,224,71);"/>
        </g>
        <g transform="matrix(1.40625,0,0,1.40625,400,-2.8125)">
            <circle cx="80" cy="36" r="4" style="fill:rgb(134,239,172);"/>
        </g>
        <g transform="matrix(1.40625,0,0,1.40625,400,-2.8125)">
            <path d="M94,20L94,52" style="fill:none;fill-rule:nonzero;stroke:rgb(226,232,240);stroke-width:1px;"/>
        </g>
        <g transform="matrix(1.40625,0,0,1.40625,400,-2.8125)">
            <rect x="94" y="20" width="56" height="2" style="fill:rgb(59,130,246);"/>
        </g>
        <g transform="matrix(1.40625,0,0,1.40625,400,-2.8125)">
            <path d="M102,33L105,36L102,39" style="fill:none;fill-rule:nonzero;stroke:rgb(59,130,246);stroke-width:1.5px;stroke-linecap:round;stroke-linejoin:round;"/>
        </g>
        <g transform="matrix(1.40625,0,0,1.40625,400,-2.8125)">
            <rect x="107" y="38" width="4" height="1.5" style="fill:rgb(59,130,246);"/>
        </g>
        <g transform="matrix(1.40625,0,0,1.40625,400,-2.8125)">
            <path d="M135,36.067L135,36.933C135,37.522 134.522,38 133.933,38L116.067,38C115.478,38 115,37.522 115,36.933L115,36.067C115,35.478 115.478,35 116.067,35L133.933,35C134.522,35 135,35.478 135,36.067Z" style="fill:rgb(59,130,246);"/>
        </g>
        <g transform="matrix(1.40625,0,0,1.40625,400,-2.8125)">
            <path d="M150,20L150,52" style="fill:none;fill-rule:nonzero;stroke:rgb(226,232,240);stroke-width:1px;"/>
        </g>
        <g transform="matrix(1.40625,0,0,1.40625,400,-2.8125)">
            <path d="M158,33L161,36L158,39" style="fill:none;fill-rule:nonzero;stroke:rgb(148,163,184);stroke-width:1.5px;stroke-linecap:round;stroke-linejoin:round;"/>
        </g>
        <g transform="matrix(1.40625,0,0,1.40625,400,-2.8125)">
            <rect x="163" y="38" width="4" height="1.5" style="fill:rgb(148,163,184);"/>
        </g>
        <g transform="matrix(1.40625,0,0,1.40625,400,-2.8125)">
            <path d="M191,36.067L191,36.933C191,37.522 190.522,38 189.933,38L172.067,38C171.478,38 171,37.522 171,36.933L171,36.067C171,35.478 171.478,35 172.067,35L189.933,35C190.522,35 191,35.478 191,36.067Z" style="fill:rgb(148,163,184);"/>
        </g>
        <g transform="matrix(1.40625,0,0,1.40625,400,-2.8125)">
            <path d="M206,20L206,52" style="fill:none;fill-rule:nonzero;stroke:rgb(226,232,240);stroke-width:1px;"/>
        </g>
        <g transform="matrix(1.40625,0,0,1.40625,400,-2.8125)">
            <path d="M213,36L219,36M216,33L216,39" style="fill-rule:nonzero;stroke:rgb(148,163,184);stroke-width:1.5px;stroke-linecap:round;"/>
        </g>
        <g transform="matrix(1.40625,0,0,1.40625,400,-2.8125)">
            <path d="M40,52L224,52" style="fill:none;fill-rule:nonzero;stroke:rgb(226,232,240);stroke-width:2px;"/>
        </g>
        <g transform="matrix(1.40625,0,0,1.40625,400,-2.8125)">
            <path d="M130,56.844L130,227.156C130,228.725 128.725,230 127.156,230L48.844,230C47.275,230 46,228.725 46,227.156L46,56.844C46,55.275 47.275,54 48.844,54L127.156,54C128.725,54 130,55.275 130,56.844Z" style="stroke:rgb(226,232,240);stroke-width:1px;"/>
        </g>
        <g transform="matrix(1.40625,0,0,1.40625,400,-2.8125)">
            <path d="M218,56.844L218,135.156C218,136.725 216.725,138 215.156,138L138.844,138C137.275,138 136,136.725 136,135.156L136,56.844C136,55.275 137.275,54 138.844,54L215.156,54C216.725,54 218,55.275 218,56.844Z" style="stroke:rgb(226,232,240);stroke-width:1px;"/>
        </g>
        <g transform="matrix(1.40625,0,0,1.40625,400,-2.8125)">
            <path d="M218,146.844L218,227.156C218,228.725 216.725,230 215.156,230L138.844,230C137.275,230 136,228.725 136,227.156L136,146.844C136,145.275 137.275,144 138.844,144L215.156,144C216.725,144 218,145.275 218,146.844Z" style="stroke:rgb(226,232,240);stroke-width:1px;"/>
        </g>
        <g transform="matrix(1.40625,0,0,1.40625,400,-2.8125)">
            <path d="M70,65.067L70,65.933C70,66.522 69.522,67 68.933,67L53.067,67C52.478,67 52,66.522 52,65.933L52,65.067C52,64.478 52.478,64 53.067,64L68.933,64C69.522,64 70,64.478 70,65.067Z" style="fill:rgb(59,130,246);"/>
        </g>
        <g transform="matrix(1.40625,0,0,1.40625,400,-2.8125)">
            <path d="M86,65.067L86,65.933C86,66.522 85.522,67 84.933,67L75.067,67C74.478,67 74,66.522 74,65.933L74,65.067C74,64.478 74.478,64 75.067,64L84.933,64C85.522,64 86,64.478 86,65.067Z" style="fill:rgb(203,213,225);"/>
        </g>
        <g transform="matrix(1.40625,0,0,1.40625,400,-2.8125)">
            <path d="M114,65.067L114,65.933C114,66.522 113.522,67 112.933,67L91.067,67C90.478,67 90,66.522 90,65.933L90,65.067C90,64.478 90.478,64 91.067,64L112.933,64C113.522,64 114,64.478 114,65.067Z" style="fill:rgb(100,116,139);"/>
        </g>
        <g transform="matrix(1.40625,0,0,1.40625,400,-2.8125)">
            <path d="M70,73.067L70,73.933C70,74.522 69.522,75 68.933,75L53.067,75C52.478,75 52,74.522 52,73.933L52,73.067C52,72.478 52.478,72 53.067,72L68.933,72C69.522,72 70,72.478 70,73.067Z" style="fill:rgb(59,130,246);"/>
        </g>
        <g transform="matrix(1.40625,0,0,1.40625,400,-2.8125)">
            <path d="M86,73.067L86,73.933C86,74.522 85.522,75 84.933,75L75.067,75C74.478,75 74,74.522 74,73.933L74,73.067C74,72.478 74.478,72 75.067,72L84.933,72C85.522,72 86,72.478 86,73.067Z" style="fill:rgb(203,213,225);"/>
        </g>
        <g transform="matrix(1.40625,0,0,1.40625,400,-2.8125)">
            <path d="M120,73.067L120,73.933C120,74.522 119.522,75 118.933,75L91.067,75C90.478,75 90,74.522 90,73.933L90,73.067C90,72.478 90.478,72 91.067,72L118.933,72C119.522,72 120,72.478 120,73.067Z" style="fill:rgb(100,116,139);"/>
        </g>
        <g transform="matrix(1.40625,0,0,1.40625,400,-2.8125)">
            <path d="M70,81.067L70,81.933C70,82.522 69.522,83 68.933,83L53.067,83C52.478,83 52,82.522 52,81.933L52,81.067C52,80.478 52.478,80 53.067,80L68.933,80C69.522,80 70,80.478 70,81.067Z" style="fill:rgb(59,130,246);"/>
        </g>
        <g transform="matrix(1.40625,0,0,1.40625,400,-2.8125)">
            <path d="M86,81.067L86,81.933C86,82.522 85.522,83 84.933,83L75.067,83C74.478,83 74,82.522 74,81.933L74,81.067C74,80.478 74.478,80 75.067,80L84.933,80C85.522,80 86,80.478 86,81.067Z" style="fill:rgb(203,213,225);"/>
        </g>
        <g transform="matrix(1.40625,0,0,1.40625,400,-2.8125)">
            <path d="M110,81.067L110,81.933C110,82.522 109.522,83 108.933,83L91.067,83C90.478,83 90,82.522 90,81.933L90,81.067C90,80.478 90.478,80 91.067,80L108.933,80C109.522,80 110,80.478 110,81.067Z" style="fill:rgb(100,116,139);"/>
        </g>
        <g transform="matrix(1.40625,0,0,1.40625,400,-2.8125)">
            <path d="M70,89.067L70,89.933C70,90.522 69.522,91 68.933,91L53.067,91C52.478,91 52,90.522 52,89.933L52,89.067C52,88.478 52.478,88 53.067,88L68.933,88C69.522,88 70,88.478 70,89.067Z" style="fill:rgb(59,130,246);"/>
        </g>
        <g transform="matrix(1.40625,0,0,1.40625,400,-2.8125)">
            <path d="M86,89.067L86,89.933C86,90.522 85.522,91 84.933,91L75.067,91C74.478,91 74,90.522 74,89.933L74,89.067C74,88.478 74.478,88 75.067,88L84.933,88C85.522,88 86,88.478 86,89.067Z" style="fill:rgb(203,213,225);"/>
        </g>
        <g transform="matrix(1.40625,0,0,1.40625,400,-2.8125)">
            <path d="M116,89.067L116,89.933C116,90.522 115.522,91 114.933,91L91.067,91C90.478,91 90,90.522 90,89.933L90,89.067C90,88.478 90.478,88 91.067,88L114.933,88C115.522,88 116,88.478 116,89.067Z" style="fill:rgb(100,116,139);"/>
        </g>
        <g transform="matrix(1.40625,0,0,1.40625,400,-2.8125)">
            <path d="M88,107.067L88,107.933C88,108.522 87.522,109 86.933,109L53.067,109C52.478,109 52,108.522 52,107.933L52,107.067C52,106.478 52.478,106 53.067,106L86.933,106C87.522,106 88,106.478 88,107.067Z" style="fill:rgb(148,163,184);"/>
        </g>
        <g transform="matrix(1.40625,0,0,1.40625,400,-2.8125)">
            <rect x="92" y="103" width="6" height="8" style="fill:none;stroke:rgb(148,163,184);stroke-width:1.5px;"/>
        </g>
        <g transform="matrix(1.40625,0,0,1.40625,400,-2.8125)">
            <path d="M158,65.067L158,65.933C158,66.522 157.522,67 156.933,67L143.067,67C142.478,67 142,66.522 142,65.933L142,65.067C142,64.478 142.478,64 143.067,64L156.933,64C157.522,64 158,64.478 158,65.067Z" style="fill:rgb(59,130,246);"/>
        </g>
        <g transform="matrix(1.40625,0,0,1.40625,400,-2.8125)">
            <path d="M174,65.067L174,65.933C174,66.522 173.522,67 172.933,67L163.067,67C162.478,67 162,66.522 162,65.933L162,65.067C162,64.478 162.478,64 163.067,64L172.933,64C173.522,64 174,64.478 174,65.067Z" style="fill:rgb(203,213,225);"/>
        </g>
        <g transform="matrix(1.40625,0,0,1.40625,400,-2.8125)">
            <path d="M206,65.067L206,65.933C206,66.522 205.522,67 204.933,67L179.067,67C178.478,67 178,66.522 178,65.933L178,65.067C178,64.478 178.478,64 179.067,64L204.933,64C205.522,64 206,64.478 206,65.067Z" style="fill:rgb(100,116,139);"/>
        </g>
        <g transform="matrix(1.40625,0,0,1.40625,400,-2.8125)">
            <path d="M158,73.067L158,73.933C158,74.522 157.522,75 156.933,75L143.067,75C142.478,75 142,74.522 142,73.933L142,73.067C142,72.478 142.478,72 143.067,72L156.933,72C157.522,72 158,72.478 158,73.067Z" style="fill:rgb(59,130,246);"/>
        </g>
        <g transform="matrix(1.40625,0,0,1.40625,400,-2.8125)">
            <path d="M174,73.067L174,73.933C174,74.522 173.522,75 172.933,75L163.067,75C162.478,75 162,74.522 162,73.933L162,73.067C162,72.478 162.478,72 163.067,72L172.933,72C173.522,72 174,72.478 174,73.067Z" style="fill:rgb(203,213,225);"/>
        </g>
        <g transform="matrix(1.40625,0,0,1.40625,400,-2.8125)">
            <path d="M198,73.067L198,73.933C198,74.522 197.522,75 196.933,75L179.067,75C178.478,75 178,74.522 178,73.933L178,73.067C178,72.478 178.478,72 179.067,72L196.933,72C197.522,72 198,72.478 198,73.067Z" style="fill:rgb(100,116,139);"/>
        </g>
        <g transform="matrix(1.40625,0,0,1.40625,400,-2.8125)">
            <path d="M158,81.067L158,81.933C158,82.522 157.522,83 156.933,83L143.067,83C142.478,83 142,82.522 142,81.933L142,81.067C142,80.478 142.478,80 143.067,80L156.933,80C157.522,80 158,80.478 158,81.067Z" style="fill:rgb(59,130,246);"/>
        </g>
        <g transform="matrix(1.40625,0,0,1.40625,400,-2.8125)">
            <path d="M174,81.067L174,81.933C174,82.522 173.522,83 172.933,83L163.067,83C162.478,83 162,82.522 162,81.933L162,81.067C162,80.478 162.478,80 163.067,80L172.933,80C173.522,80 174,80.478 174,81.067Z" style="fill:rgb(203,213,225);"/>
        </g>
        <g transform="matrix(1.40625,0,0,1.40625,400,-2.8125)">
            <path d="M202,81.067L202,81.933C202,82.522 201.522,83 200.933,83L179.067,83C178.478,83 178,82.522 178,81.933L178,81.067C178,80.478 178.478,80 179.067,80L200.933,80C201.522,80 202,80.478 202,81.067Z" style="fill:rgb(100,116,139);"/>
        </g>
        <g transform="matrix(1.40625,0,0,1.40625,400,-2.8125)">
            <path d="M174,117.067L174,117.933C174,118.522 173.522,119 172.933,119L143.067,119C142.478,119 142,118.522 142,117.933L142,117.067C142,116.478 142.478,116 143.067,116L172.933,116C173.522,116 174,116.478 174,117.067Z" style="fill:rgb(148,163,184);"/>
        </g>
        <g transform="matrix(1.40625,0,0,1.40625,400,-2.8125)">
            <rect x="178" y="113" width="6" height="8" style="fill:none;stroke:rgb(148,163,184);stroke-width:1.5px;"/>
        </g>
        <g transform="matrix(1.40625,0,0,1.40625,400,-2.8125)">
            <path d="M158,155.067L158,155.933C158,156.522 157.522,157 156.933,157L143.067,157C142.478,157 142,156.522 142,155.933L142,155.067C142,154.478 142.478,154 143.067,154L156.933,154C157.522,154 158,154.478 158,155.067Z" style="fill:rgb(59,130,246);"/>
        </g>
        <g transform="matrix(1.40625,0,0,1.40625,400,-2.8125)">
            <path d="M174,155.067L174,155.933C174,156.522 173.522,157 172.933,157L163.067,157C162.478,157 162,156.522 162,155.933L162,155.067C162,154.478 162.478,154 163.067,154L172.933,154C173.522,154 174,154.478 174,155.067Z" style="fill:rgb(203,213,225);"/>
        </g>
        <g transform="matrix(1.40625,0,0,1.40625,400,-2.8125)">
            <path d="M208,155.067L208,155.933C208,156.522 207.522,157 206.933,157L179.067,157C178.478,157 178,156.522 178,155.933L178,155.067C178,154.478 178.478,154 179.067,154L206.933,154C207.522,154 208,154.478 208,155.067Z" style="fill:rgb(100,116,139);"/>
        </g>
        <g transform="matrix(1.40625,0,0,1.40625,400,-2.8125)">
            <path d="M158,163.067L158,163.933C158,164.522 157.522,165 156.933,165L143.067,165C142.478,165 142,164.522 142,163.933L142,163.067C142,162.478 142.478,162 143.067,162L156.933,162C157.522,162 158,162.478 158,163.067Z" style="fill:rgb(59,130,246);"/>
        </g>
        <g transform="matrix(1.40625,0,0,1.40625,400,-2.8125)">
            <path d="M174,163.067L174,163.933C174,164.522 173.522,165 172.933,165L163.067,165C162.478,165 162,164.522 162,163.933L162,163.067C162,162.478 162.478,162 163.067,162L172.933,162C173.522,162 174,162.478 174,163.067Z" style="fill:rgb(203,213,225);"/>
        </g>
        <g transform="matrix(1.40625,0,0,1.40625,400,-2.8125)">
            <path d="M200,163.067L200,163.933C200,164.522 199.522,165 198.933,165L179.067,165C178.478,165 178,164.522 178,163.933L178,163.067C178,162.478 178.478,162 179.067,162L198.933,162C199.522,162 200,162.478 200,163.067Z" style="fill:rgb(100,116,139);"/>
        </g>
        <g transform="matrix(1.40625,0,0,1.40625,400,-2.8125)">
            <path d="M158,171.067L158,171.933C158,172.522 157.522,173 156.933,173L143.067,173C142.478,173 142,172.522 142,171.933L142,171.067C142,170.478 142.478,170 143.067,170L156.933,170C157.522,170 158,170.478 158,171.067Z" style="fill:rgb(59,130,246);"/>
        </g>
        <g transform="matrix(1.40625,0,0,1.40625,400,-2.8125)">
            <path d="M174,171.067L174,171.933C174,172.522 173.522,173 172.933,173L163.067,173C162.478,173 162,172.522 162,171.933L162,171.067C162,170.478 162.478,170 163.067,170L172.933,170C173.522,170 174,170.478 174,171.067Z" style="fill:rgb(203,213,225);"/>
        </g>
        <g transform="matrix(1.40625,0,0,1.40625,400,-2.8125)">
            <path d="M204,171.067L204,171.933C204,172.522 203.522,173 202.933,173L179.067,173C178.478,173 178,172.522 178,171.933L178,171.067C178,170.478 178.478,170 179.067,170L202.933,170C203.522,170 204,170.478 204,171.067Z" style="fill:rgb(100,116,139);"/>
        </g>
        <g transform="matrix(1.40625,0,0,1.40625,400,-2.8125)">
            <path d="M174,213.067L174,213.933C174,214.522 173.522,215 172.933,215L143.067,215C142.478,215 142,214.522 142,213.933L142,213.067C142,212.478 142.478,212 143.067,212L172.933,212C173.522,212 174,212.478 174,213.067Z" style="fill:rgb(148,163,184);"/>
        </g>
        <g transform="matrix(1.40625,0,0,1.40625,400,-2.8125)">
            <rect x="178" y="209" width="6" height="8" style="fill:none;stroke:rgb(148,163,184);stroke-width:1.5px;"/>
        </g>
        <g transform="matrix(1.40625,0,0,1.40625,400,-2.8125)">
            <circle cx="68" cy="180" r="52" style="fill:rgb(14,165,233);stroke:white;stroke-width:8px;"/>
        </g>
        <g transform="matrix(1.40625,0,0,1.40625,400,-2.8125)">
            <path d="M44,156L92,156M44,180L76,180M44,204L92,204" style="fill-rule:nonzero;stroke:white;stroke-width:12px;stroke-linecap:round;"/>
        </g>
    </g>
</svg>
