<?xml version="1.0" standalone="no"?>
<svg width="256" height="256" viewBox="0 0 256 256" fill="none" xmlns="http://www.w3.org/2000/svg">
                    <!-- 背面のウィンドウ影 -->
                    <rect x="44" y="24" width="184" height="216" rx="16" fill="#1e1e24">
  </rect>
                    
                    <!-- ウィンドウ本体（黒基調） -->
                    <rect x="40" y="20" width="184" height="216" rx="16" fill="#09090b" stroke="#27272a" stroke-width="2">
  </rect>

                    <!-- ヘッダー部分 -->
                    <path d="M 48 32 L 52 36 L 48 40" stroke="#0ea5e9" stroke-width="1.5" stroke-linecap="round" stroke-linejoin="round" fill="none">
  </path>
                    <rect x="54" y="38" width="6" height="2" fill="#0ea5e9">
  </rect>
                    <rect x="64" y="34" width="28" height="4" rx="2" fill="#a1a1aa">
  </rect>
                    
                    <line x1="40" y1="48" x2="224" y2="48" stroke="#27272a" stroke-width="2">
  </line>

                    <!-- ペイン分割（タイル状） -->
                    
                    <!-- 左ペイン：アクティブ（ネオンパープルのハイライト） -->
                    <rect x="46" y="54" width="84" height="176" rx="4" fill="none" stroke="#a855f7" stroke-width="4" opacity="0.3">
  </rect> <!-- ネオングロー効果 -->
                    <rect x="46" y="54" width="84" height="176" rx="4" fill="#050505" stroke="#c084fc" stroke-width="1.5">
  </rect>

                    <!-- 右上ペイン -->
                    <rect x="136" y="54" width="82" height="84" rx="4" fill="#050505" stroke="#3f3f46" stroke-width="1">
  </rect>

                    <!-- 右下ペイン -->
                    <rect x="136" y="144" width="82" height="86" rx="4" fill="#050505" stroke="#3f3f46" stroke-width="1">
  </rect>

                    <!-- 各ペインのテキストライン（スクショの出力を模したイメージ） -->
                    <!-- 左ペイン -->
                    <rect x="52" y="64" width="18" height="3" rx="1.5" fill="#d4d4d8">
  </rect>
                    <rect x="74" y="64" width="12" height="3" rx="1.5" fill="#71717a">
  </rect>
                    <rect x="90" y="64" width="24" height="3" rx="1.5" fill="#f8fafc">
  </rect>

                    <rect x="52" y="72" width="18" height="3" rx="1.5" fill="#d4d4d8">
  </rect>
                    <rect x="74" y="72" width="12" height="3" rx="1.5" fill="#71717a">
  </rect>
                    <rect x="90" y="72" width="30" height="3" rx="1.5" fill="#f8fafc">
  </rect>

                    <rect x="52" y="80" width="18" height="3" rx="1.5" fill="#d4d4d8">
  </rect>
                    <rect x="74" y="80" width="12" height="3" rx="1.5" fill="#71717a">
  </rect>
                    <rect x="90" y="80" width="20" height="3" rx="1.5" fill="#f8fafc">
  </rect>

                    <rect x="52" y="88" width="18" height="3" rx="1.5" fill="#d4d4d8">
  </rect>
                    <rect x="74" y="88" width="12" height="3" rx="1.5" fill="#71717a">
  </rect>
                    <rect x="90" y="88" width="26" height="3" rx="1.5" fill="#f8fafc">
  </rect>

                    <!-- 左ペインのプロンプトと中抜きカーソル（バッジの上に配置） -->
                    <rect x="52" y="106" width="36" height="3" rx="1.5" fill="#e2e8f0">
  </rect>
                    <rect x="92" y="103" width="6" height="8" fill="none" stroke="#0ea5e9" stroke-width="1.5">
  </rect>

                    <!-- 右上ペイン -->
                    <rect x="142" y="64" width="16" height="3" rx="1.5" fill="#d4d4d8">
  </rect>
                    <rect x="162" y="64" width="12" height="3" rx="1.5" fill="#71717a">
  </rect>
                    <rect x="178" y="64" width="28" height="3" rx="1.5" fill="#f8fafc">
  </rect>

                    <rect x="142" y="72" width="16" height="3" rx="1.5" fill="#d4d4d8">
  </rect>
                    <rect x="162" y="72" width="12" height="3" rx="1.5" fill="#71717a">
  </rect>
                    <rect x="178" y="72" width="20" height="3" rx="1.5" fill="#f8fafc">
  </rect>

                    <rect x="142" y="80" width="16" height="3" rx="1.5" fill="#d4d4d8">
  </rect>
                    <rect x="162" y="80" width="12" height="3" rx="1.5" fill="#71717a">
  </rect>
                    <rect x="178" y="80" width="24" height="3" rx="1.5" fill="#f8fafc">
  </rect>

                    <rect x="142" y="116" width="32" height="3" rx="1.5" fill="#e2e8f0">
  </rect>
                    <rect x="178" y="113" width="6" height="8" fill="none" stroke="#0ea5e9" stroke-width="1.5">
  </rect>

                    <!-- 右下ペイン -->
                    <rect x="142" y="154" width="16" height="3" rx="1.5" fill="#d4d4d8">
  </rect>
                    <rect x="162" y="154" width="12" height="3" rx="1.5" fill="#71717a">
  </rect>
                    <rect x="178" y="154" width="30" height="3" rx="1.5" fill="#f8fafc">
  </rect>

                    <rect x="142" y="162" width="16" height="3" rx="1.5" fill="#d4d4d8">
  </rect>
                    <rect x="162" y="162" width="12" height="3" rx="1.5" fill="#71717a">
  </rect>
                    <rect x="178" y="162" width="22" height="3" rx="1.5" fill="#f8fafc">
  </rect>

                    <rect x="142" y="170" width="16" height="3" rx="1.5" fill="#d4d4d8">
  </rect>
                    <rect x="162" y="170" width="12" height="3" rx="1.5" fill="#71717a">
  </rect>
                    <rect x="178" y="170" width="26" height="3" rx="1.5" fill="#f8fafc">
  </rect>

                    <rect x="142" y="212" width="32" height="3" rx="1.5" fill="#e2e8f0">
  </rect>
                    <rect x="178" y="209" width="6" height="8" fill="none" stroke="#0ea5e9" stroke-width="1.5">
  </rect>

                    <!-- 前面のロゴバッジ（位置と色は完全に元のまま） -->
                    <rect x="16" y="128" width="104" height="104" rx="24" fill="#0ea5e9" stroke="#ffffff" stroke-width="8" stroke-linejoin="round">
  </rect>
                    <path d="M 44 156 H 92 M 44 180 H 76 M 44 204 H 92" stroke="#ffffff" stroke-width="12" stroke-linecap="round">
  </path>
                
</svg>